<?xml version="1.0" encoding="iso-8859-1"?>
<!-- Generator: Adobe Illustrator 21.0.0, SVG Export Plug-In . SVG Version: 6.00 Build 0)  -->
<svg xmlns="http://www.w3.org/2000/svg" xmlns:xlink="http://www.w3.org/1999/xlink" version="1.1" id="Capa_1" x="0px" y="0px" viewBox="0 0 512 512" style="enable-background:new 0 0 512 512;" xml:space="preserve" width="512" height="512">
<g>
	<path style="fill:#55696E;" d="M303.2,47.08V464.8c0,26.03-21.17,47.2-47.2,47.2s-47.2-21.17-47.2-47.2V47.08   C208.87,21.1,230.01,0,256,0S303.13,21.1,303.2,47.08z"/>
	<path style="fill:#323C3C;" d="M303.2,47.08V464.8c0,26.03-21.17,47.2-47.2,47.2V0C281.99,0,303.13,21.1,303.2,47.08z"/>
	<g>
		<path style="fill:#FFD844;" d="M512,125.02c0,9.3-3.93,18.22-10.79,24.46l-49.41,44.96c-6.03,5.49-13.83,8.52-21.97,8.52H208.8    V47.08h221.03c8.14,0,15.94,3.02,21.97,8.51l49.41,44.97C508.07,106.8,512,115.71,512,125.02z"/>
		<path style="fill:#00ABFF;" d="M303.2,202.96v155.88H82.17c-8.14,0-15.94-3.02-21.97-8.51l-49.41-44.97    C3.93,299.12,0,290.2,0,280.9c0-9.3,3.93-18.22,10.79-24.46l49.41-44.97c6.03-5.49,13.83-8.51,21.97-8.51H303.2z"/>
	</g>
	<path style="fill:#FFBF00;" d="M512,125.02c0,9.3-3.93,18.22-10.79,24.46l-49.41,44.96c-6.03,5.49-13.83,8.52-21.97,8.52H256V47.08   h173.83c8.14,0,15.94,3.02,21.97,8.51l49.41,44.97C508.07,106.8,512,115.71,512,125.02z"/>
	<rect x="256" y="202.96" style="fill:#2680FF;" width="47.2" height="155.88"/>
</g>















</svg>
