<svg id="Capa_1" enable-background="new 0 0 512.002 512.002" height="512" viewBox="0 0 512.002 512.002" width="512" xmlns="http://www.w3.org/2000/svg"><g><g><path d="m102.908 192.427v-43.952h-8.485c-2.028 0-3.969-.355-5.784-.979-8.413 3.782-14.875 13.53-14.875 23.153 0 13.763 13.755 25.052 29.183 23.359-.014-.527-.039-1.053-.039-1.581z" fill="#ffb1a0"/><path d="m102.908 190.418c-7.237-4.217-12.144-11.551-12.144-19.77 0-8.55 5.106-17.187 12.144-21.663v-.511h-8.485c-2.028 0-3.969-.355-5.784-.979-8.413 3.782-14.875 13.53-14.875 23.153 0 13.763 13.755 25.052 29.183 23.359-.014-.527-.039-1.052-.039-1.581z" fill="#ffa68e"/><g><path d="m233.011 174.144h18.496c.037-.522.062-3.046.062-3.576 0-10.462-6.813-21.273-16.757-24.419-1.919 1.452-4.297 2.325-6.874 2.325-1.546 0-4.055-.166-5.513-.475v39.73c0-5.293 5.292-13.585 10.586-13.585z" fill="#ffb1a0"/></g><path d="m240.515 149.013c-1.75-1.228-3.655-2.215-5.703-2.863-1.919 1.452-4.297 2.325-6.875 2.325-1.546 0-4.055-.166-5.513-.475v39.73c0-5.294 5.292-13.586 10.586-13.586h7.504v-25.131z" fill="#ffa68e"/><g><path d="m254.262 398.367c-6.487 0-11.747-5.259-11.747-11.747v-102.805c-3.802-1.473-9.581-2.936-13.218-4.344-33.286 33.286-31.578 31.785-35.221 34.595-20.407 15.742-49.524 13.922-67.838-4.393l-30.333-30.333-55.56 21.699c-14.043 5.779-32.845 23.962-32.845 50.944v106.158c0 6.045 4.9 10.945 10.945 10.945h288.444c6.045 0 10.945-4.9 10.945-10.945 0-2.166 0-33.592 0-59.774z" fill="#695d67"/></g><g><path d="m34.364 340.877c0-23.615 14.402-40.489 27.411-48.208l-21.429 8.369c-14.044 5.78-32.846 23.963-32.846 50.945v106.158c0 6.045 4.9 10.945 10.945 10.945h15.919c0-46.098 0-121.105 0-128.209z" fill="#544e55"/></g><path d="m172.796 292.392 24.186-27.014c-.462-.86-.731-1.83-.734-2.852l-.016-22.961c-21.348 13.969-48.36 12.082-67.182-.089v23.014c0 1.216-.288 2.186-.739 2.973l24.101 26.929c.537.531.888 1.17 1.093 1.845h18.197c.206-.675.557-1.314 1.094-1.845z" fill="#ffb1a0"/><g><path d="m161.707 293.188v-43.864c-11.779-.245-23.243-3.76-32.657-9.847v23.014c0 1.216-.288 2.186-.739 2.973l24.101 26.929c.537.531.888 1.17 1.093 1.845h8.17c.019-.344.032-.691.032-1.05z" fill="#ffa68e"/></g><path d="m240.515 202.772v185.848c0 6.487 5.259 11.747 11.747 11.747h223.403c6.487 0 11.746-5.259 11.746-11.747v-185.848z" fill="#dfebfa"/><path d="m296.515 388.62v-185.848h-56v185.848c0 6.488 5.259 11.747 11.747 11.747h56c-6.488 0-11.747-5.259-11.747-11.747z" fill="#b1dbfc"/><path d="m363.963 437.131c-8.824 0-15.978 7.154-15.978 15.978s7.154 15.978 15.978 15.978 15.978-7.154 15.978-15.978c0-8.825-7.153-15.978-15.978-15.978z" fill="#dfebfa"/><path d="m362.819 453.109c0-6.146 3.474-11.473 8.561-14.146-2.218-1.165-4.738-1.832-7.417-1.832-8.824 0-15.978 7.153-15.978 15.978 0 8.824 7.154 15.978 15.978 15.978 2.679 0 5.199-.667 7.417-1.832-5.087-2.674-8.561-8.001-8.561-14.146z" fill="#b1dbfc"/><path d="m494.916 172.144h-261.905c-5.294 0-9.586 4.292-9.586 9.586v14.456c0 5.294 4.292 9.586 9.586 9.586h261.906c5.294 0 9.586-4.292 9.586-9.586v-14.456c-.001-5.294-4.293-9.586-9.587-9.586z" fill="#8479c2"/><path d="m293.925 196.186v-14.456c0-5.294 4.292-9.586 9.586-9.586h-70.5c-5.294 0-9.586 4.292-9.586 9.586v14.456c0 5.294 4.292 9.586 9.586 9.586h70.5c-5.294 0-9.586-4.292-9.586-9.586z" fill="#6e60b8"/><path d="m301.067 302.066h-21.515c-2.557 0-4.631 2.073-4.631 4.631v35.124c0 2.005 1.625 3.631 3.631 3.631h27.146v-38.754c-.001-2.559-2.074-4.632-4.631-4.632z" fill="#43cb8e"/><path d="m290.833 306.697c0-2.557 2.073-4.631 4.631-4.631h-15.912c-2.557 0-4.631 2.073-4.631 4.631v35.124c0 2.005 1.625 3.631 3.631 3.631h12.281z" fill="#00ba66"/><path d="m330.843 283.522h-21.515c-2.557 0-4.631 2.073-4.631 4.631v57.298h30.776v-57.298c.001-2.557-2.072-4.631-4.63-4.631z" fill="#ffe181"/><path d="m325.24 283.522h-15.912c-2.557 0-4.631 2.073-4.631 4.63v57.298h15.912v-57.298c.001-2.556 2.074-4.63 4.631-4.63z" fill="#fec458"/><path d="m359.572 264.284h-20.515c-2.557 0-4.631 2.073-4.631 4.631v76.536h26.146c2.005 0 3.631-1.625 3.631-3.631v-72.905c-.001-2.558-2.074-4.631-4.631-4.631z" fill="#ff7f87"/><path d="m354.969 264.284h-15.912c-2.557 0-4.631 2.073-4.631 4.631v76.536h15.912v-76.536c0-2.558 2.073-4.631 4.631-4.631z" fill="#ff656f"/><path d="m171.702 291.237h-18.197c.456 1.498-1.884 3.187-3.065 4.376l-19.254 21.398c18.468 14.297 44.404 14.315 62.891.055l-19.309-21.453c-1.181-1.189-3.522-2.878-3.066-4.376z" fill="#fec458"/><path d="m200.129 268.175c-1.38-.533-2.474-1.544-3.147-2.796l-24.186 24.014c-1.728 1.709-1.741 4.497-.028 6.221l21.309 21.453c1.741-1.343 3.422-2.797 5.018-4.393l32.365-32.365c-15.97-6.186-29.702-11.504-31.331-12.134z" fill="#ffe181"/><path d="m128.311 265.463c-.477.832-1.137 1.459-1.848 1.942l-32.715 12.777 32.491 32.491c1.574 1.574 3.232 3.01 4.947 4.338l21.254-21.398c1.713-1.724 1.7-4.512-.028-6.221z" fill="#ffe181"/><path d="m206.096 124.633c0-1.17-1.567-1.574-2.119-.541-7.121 13.318-21.154 22.383-37.312 22.383h-26.854v45.8c0 25.247 15.628 48.746 40.851 57.534 24.702-7.387 42.763-30.31 42.763-57.382v-46.427c-9.866-2.094-17.329-10.9-17.329-21.367z" fill="#ffcebe"/><g><path d="m140.717 192.427v-45.952h-38.809v45.952c0 31.302 24.526 59.891 61.625 59.891 6.56 0 12.87-1.075 18.782-3.033-25.637-8.141-41.598-31.612-41.598-56.858z" fill="#ffb1a0"/></g><path d="m219.534 70.638c-5.722.44-10.973-3.158-12.074-8.791-1.855-9.486-6.552-18.9-24.897-18.9h-63.651c-23.36 0-42.298 18.937-42.298 42.298v46.421c0 9.836 7.974 17.81 17.81 17.81h72.241c16.158 0 30.191-9.065 37.312-22.383.552-1.032 2.119-.629 2.119.541 0 12.013 9.829 21.842 21.842 21.842 6.297 0 11.449-5.152 11.449-11.449 0-17.598 0-30.452 0-48.442 0-11.413-9.957-19.708-19.853-18.947z" fill="#695d67"/><g><path d="m111.615 132.632v-47.686c0-20.141 13.706-37.074 32.298-41.999h-25.002c-23.36 0-42.298 18.937-42.298 42.298v46.421c0 9.836 7.974 17.81 17.81 17.81h28.338c-6.551-2.785-11.146-9.278-11.146-16.844z" fill="#544e55"/></g></g><g><path d="m448.774 297.352h-48c-4.143 0-7.5 3.358-7.5 7.5s3.357 7.5 7.5 7.5h48c4.143 0 7.5-3.358 7.5-7.5s-3.357-7.5-7.5-7.5z"/><path d="m448.774 328.181h-48c-4.143 0-7.5 3.358-7.5 7.5s3.357 7.5 7.5 7.5h48c4.143 0 7.5-3.358 7.5-7.5s-3.357-7.5-7.5-7.5z"/><path d="m448.774 266.523h-48c-4.143 0-7.5 3.358-7.5 7.5s3.357 7.5 7.5 7.5h48c4.143 0 7.5-3.358 7.5-7.5s-3.357-7.5-7.5-7.5z"/><path d="m339.057 256.769c-6.689 0-12.131 5.442-12.131 12.131v7.107h-17.598c-6.688 0-12.13 5.442-12.13 12.13v6.414h-17.646c-6.688 0-12.13 5.442-12.13 12.13v35.124c0 6.138 4.993 11.131 11.13 11.131h82.021c6.137 0 11.13-4.993 11.13-11.131v-72.905c0-6.689-5.441-12.131-12.13-12.131zm-41.859 81.167h-14.776v-28.385h14.776zm29.728 0h-14.728c0-9.127 0-37.624 0-46.929h14.728zm29.776 0h-14.728c0-48.509-.049-63.931-.049-66.167h14.776v66.167z"/><path d="m18.445 476.57h126.722c4.143 0 7.5-3.358 7.5-7.5s-3.357-7.5-7.5-7.5h-77.065v-100.757c0-4.142-3.357-7.5-7.5-7.5s-7.5 3.358-7.5 7.5v100.757h-34.657c-1.899 0-3.445-1.545-3.445-3.445v-106.157c0-23.734 16.808-39.292 28.143-43.985l48.768-19.046 29.025 29.024c10.642 10.645 25.481 17.294 41.731 17.293 15.665-.001 30.648-6.213 41.732-17.292l28.616-28.617v99.261c0 10.613 8.634 19.247 19.246 19.247h4.971v53.719h-77.065c-4.143 0-7.5 3.358-7.5 7.5s3.357 7.5 7.5 7.5h126.722c10.171 0 18.445-8.274 18.445-18.445v-50.274h31.13v22.999c-9.277 3.137-15.978 11.919-15.978 22.242 0 12.946 10.532 23.478 23.478 23.478s23.478-10.532 23.478-23.478c0-10.323-6.7-19.105-15.978-22.242v-22.999h104.202c10.612 0 19.246-8.634 19.246-19.247v-66.252c0-4.142-3.357-7.5-7.5-7.5s-7.5 3.358-7.5 7.5v66.252c0 2.342-1.905 4.247-4.246 4.247h-157.832-65.572c-2.341 0-4.246-1.905-4.246-4.247 0-4.725 0-170.623 0-175.348h231.896v74.096c0 4.142 3.357 7.5 7.5 7.5s7.5-3.358 7.5-7.5v-74.096h.005c9.421 0 17.085-7.665 17.085-17.086v-14.456c0-9.421-7.664-17.085-17.085-17.085h-236.421c-1.536-8.178-6.163-15.469-12.736-20.241.717-1.996 1.128-4.137 1.128-6.377v-48.445c0-15.866-13.747-27.513-27.929-26.424-1.765.137-3.75-.767-4.139-2.753-3.285-16.795-13.837-24.96-32.258-24.96h-63.65c-27.459 0-49.798 22.339-49.798 49.798v46.421c0 6.504 2.468 12.442 6.514 16.93-5.831 5.91-9.364 13.864-9.364 22.054 0 15.291 11.935 28.898 28.783 30.797 2.41 17.226 11.648 33.875 26.502 44.956v14.87c-8.437 3.296-74.998 29.291-83.934 32.781-.042.017-.084.034-.126.051-18.055 7.431-37.489 28.713-37.489 57.879v106.158c0 10.17 8.274 18.444 18.445 18.444zm345.519-31.955c4.675 0 8.478 3.803 8.478 8.478s-3.803 8.478-8.478 8.478-8.478-3.803-8.478-8.478 3.803-8.478 8.478-8.478zm-91.732-36.763h38.102v50.274c0 1.899-1.546 3.445-3.445 3.445h-34.656v-53.719zm-129.144-92.197c8.948-9.009 5.698-5.737 14.674-14.773.01-.01.018-.021.027-.031.661-.67 1.287-1.511 1.67-2.131h6.288c.402.657 1.047 1.506 1.699 2.162l14.715 14.814c-12.292 6.092-26.794 6.076-39.073-.041zm-6.549-52.607c.007-.19.011-.381.011-.574v-7.701c15.472 6.174 34.761 7.176 52.191.118l.007 7.64c0 .143.003.286.008.429-8.7 8.638-12.465 12.376-20.909 20.76h-10.485c-5.279-5.239-16.578-16.457-20.823-20.672zm57.868 43.692c-1.44-1.449-12.47-12.554-14.128-14.224l17.391-17.267c10.573 4.095 9.995 3.871 20.347 7.88zm38.609-33.888-29.268-11.334-.013-15.053c11.283-8.413 19.855-20.268 24.144-33.998 1.621.512 3.344.791 5.132.791h.005zm261.901-93.223c1.149 0 2.085.936 2.085 2.085v14.456c0 1.15-.936 2.086-2.085 2.086-12.603 0-249.057 0-261.906 0-1.149 0-2.085-.936-2.085-2.086 0-8.243 0-6.46 0-14.456 0-1.15.936-2.086 2.085-2.086 15.46.001 246.645.001 261.906.001zm-259.619-24.158c3.516 1.952 6.277 5.278 7.704 9.157h-9.991c-.68 0-1.627.07-2.085.126v-8.032c1.486-.235 3.176-.744 4.372-1.251zm-140.889 30.66c-7.471-1.78-13.145-7.985-13.145-15.498 0-5.487 3.312-11.01 8.286-14.149 1.182.231 2.392.384 3.625.444.411.021.822.031 1.233.032v29.171zm.015-44.172c-5.558 0-10.31-4.532-10.31-10.31v-46.42c0-19.188 15.61-34.798 34.798-34.798h63.65c13.895 0 16.163 5.815 17.537 12.839 1.798 9.194 10.413 15.567 20.01 14.83 5.556-.424 11.778 4.439 11.778 11.468v48.442c0 2.158-1.863 3.949-3.949 3.949-7.987 0-14.342-6.597-14.342-14.342 0-8.973-12.041-11.927-16.233-4.078-6.074 11.361-17.838 18.419-30.698 18.419-10.479.001-61.745.001-72.241.001zm14.985 50.452v-35.452h57.256c13.449 0 26.316-5.435 35.66-15.038 3.069 5.474 7.848 9.859 13.601 12.452v38.037c0 29.227-23.885 52.391-52.392 52.391-32.67.001-54.125-25.387-54.125-52.39zm17.965 82.675c11.399 11.318 7.061 7.011 17.556 17.431-7.614 7.665-4.857 4.89-14.065 14.16l-23.698-23.698z"/></g></g></svg>